<?xml version="1.0" encoding="UTF-8"?>
<svg xmlns="http://www.w3.org/2000/svg" xmlns:xlink="http://www.w3.org/1999/xlink" width="75px" height="75px" viewBox="0 0 75 75" version="1.1">
<g id="surface1">
<path style=" stroke:none;fill-rule:nonzero;fill:rgb(0%,83.137255%,62.352941%);fill-opacity:1;" d="M 75 37.5 C 75 58.210938 58.210938 75 37.5 75 C 34.890625 75 32.34375 74.734375 29.886719 74.226562 C 12.828125 70.710938 0 55.601562 0 37.5 C 0 16.789062 16.789062 0 37.5 0 C 55.601562 0 70.710938 12.828125 74.226562 29.886719 C 74.734375 32.34375 75 34.890625 75 37.5 Z M 75 37.5 "/>
<path style=" stroke:none;fill-rule:nonzero;fill:rgb(0%,65.882353%,49.411765%);fill-opacity:1;" d="M 15.078125 17.558594 L 61.898438 17.558594 L 61.898438 59.417969 L 15.078125 59.417969 Z M 15.078125 17.558594 "/>
<path style=" stroke:none;fill-rule:nonzero;fill:rgb(29.019608%,25.490196%,26.666667%);fill-opacity:1;" d="M 13.101562 15.582031 L 59.921875 15.582031 L 59.921875 57.441406 L 13.101562 57.441406 Z M 13.101562 15.582031 "/>
<path style=" stroke:none;fill-rule:nonzero;fill:rgb(18.039216%,15.686275%,16.862745%);fill-opacity:1;" d="M 13.101562 15.582031 L 59.921875 15.582031 L 59.921875 21.390625 L 13.101562 21.390625 Z M 13.101562 15.582031 "/>
<path style=" stroke:none;fill-rule:nonzero;fill:rgb(100%,21.176471%,24.313725%);fill-opacity:1;" d="M 17.53125 18.484375 C 17.53125 18.941406 17.160156 19.308594 16.703125 19.308594 C 16.25 19.308594 15.878906 18.941406 15.878906 18.484375 C 15.878906 18.03125 16.25 17.660156 16.703125 17.660156 C 17.160156 17.660156 17.53125 18.03125 17.53125 18.484375 Z M 17.53125 18.484375 "/>
<path style=" stroke:none;fill-rule:nonzero;fill:rgb(100%,87.45098%,12.941176%);fill-opacity:1;" d="M 20.078125 18.484375 C 20.078125 18.941406 19.710938 19.308594 19.253906 19.308594 C 18.800781 19.308594 18.429688 18.941406 18.429688 18.484375 C 18.429688 18.03125 18.800781 17.660156 19.253906 17.660156 C 19.710938 17.660156 20.078125 18.03125 20.078125 18.484375 Z M 20.078125 18.484375 "/>
<path style=" stroke:none;fill-rule:nonzero;fill:rgb(23.529412%,100%,63.137255%);fill-opacity:1;" d="M 22.628906 18.484375 C 22.628906 18.941406 22.261719 19.308594 21.804688 19.308594 C 21.347656 19.308594 20.980469 18.941406 20.980469 18.484375 C 20.980469 18.03125 21.347656 17.660156 21.804688 17.660156 C 22.261719 17.660156 22.628906 18.03125 22.628906 18.484375 Z M 22.628906 18.484375 "/>
<path style=" stroke:none;fill-rule:nonzero;fill:rgb(23.137255%,20.392157%,21.176471%);fill-opacity:1;" d="M 31.046875 35.46875 L 27.324219 39.398438 L 31.042969 43.285156 L 29.433594 44.964844 L 24.160156 39.398438 L 29.4375 33.8125 Z M 31.046875 35.46875 "/>
<path style=" stroke:none;fill-rule:nonzero;fill:rgb(23.137255%,20.392157%,21.176471%);fill-opacity:1;" d="M 42.675781 30.816406 L 34.808594 47.628906 L 32.027344 47.628906 L 39.824219 30.816406 Z M 42.675781 30.816406 "/>
<path style=" stroke:none;fill-rule:nonzero;fill:rgb(23.137255%,20.392157%,21.176471%);fill-opacity:1;" d="M 45.386719 33.8125 L 50.664062 39.398438 L 45.386719 44.964844 L 43.78125 43.285156 L 47.496094 39.398438 L 43.78125 35.46875 Z M 45.386719 33.8125 "/>
<path style=" stroke:none;fill-rule:nonzero;fill:rgb(55.294118%,77.647059%,24.705882%);fill-opacity:1;" d="M 30.144531 34.453125 L 26.425781 38.386719 L 30.140625 42.269531 L 28.535156 43.949219 L 23.257812 38.386719 L 28.535156 32.796875 Z M 30.144531 34.453125 "/>
<path style=" stroke:none;fill-rule:nonzero;fill:rgb(55.294118%,77.647059%,24.705882%);fill-opacity:1;" d="M 41.777344 29.800781 L 33.910156 46.613281 L 31.128906 46.613281 L 38.921875 29.800781 Z M 41.777344 29.800781 "/>
<path style=" stroke:none;fill-rule:nonzero;fill:rgb(55.294118%,77.647059%,24.705882%);fill-opacity:1;" d="M 44.488281 32.796875 L 49.765625 38.386719 L 44.488281 43.949219 L 42.878906 42.269531 L 46.597656 38.386719 L 42.878906 34.453125 Z M 44.488281 32.796875 "/>
</g>
</svg>
